<?xml version="1.0" standalone="no"?>
<!DOCTYPE svg PUBLIC "-//W3C//DTD SVG 20010904//EN"
 "http://www.w3.org/TR/2001/REC-SVG-20010904/DTD/svg10.dtd">
<svg version="1.0" xmlns="http://www.w3.org/2000/svg"
 width="341.000000pt" height="341.000000pt" viewBox="0 0 341.000000 341.000000"
 preserveAspectRatio="xMidYMid meet">
<metadata>
Created by potrace 1.11, written by Peter Selinger 2001-2013
</metadata>
<g transform="translate(0.000000,341.000000) scale(0.100000,-0.100000)"
fill="#000000" stroke="none">
<path d="M1732 2859 c3 -8 22 -20 44 -28 21 -8 41 -17 44 -20 3 -4 14 -8 25
-9 11 -2 22 -7 25 -10 3 -4 28 -18 55 -32 28 -13 54 -30 58 -37 4 -7 15 -13
23 -13 8 0 17 -7 20 -15 4 -8 10 -12 15 -9 5 3 9 1 9 -4 0 -17 46 -28 123 -27
42 0 77 -2 77 -5 0 -3 14 -6 31 -6 50 -3 149 -26 149 -36 0 -5 6 -8 13 -7 57
11 297 -170 348 -262 32 -58 77 -149 74 -149 -2 0 5 -21 14 -48 10 -26 17 -57
16 -70 -1 -12 1 -22 5 -22 7 0 8 -16 9 -149 1 -58 -2 -107 -7 -110 -5 -3 -8
-14 -6 -25 1 -10 -2 -29 -7 -43 -5 -13 -11 -37 -14 -52 -3 -16 -12 -41 -20
-57 -8 -16 -15 -35 -15 -41 0 -7 -5 -13 -10 -13 -6 0 -9 -3 -8 -7 3 -7 -33
-71 -57 -101 -5 -8 -35 -40 -66 -72 -64 -66 -135 -113 -231 -155 -37 -16 -65
-32 -63 -36 3 -4 -3 -17 -13 -30 -23 -32 -41 -61 -49 -79 -3 -8 -13 -19 -20
-23 -7 -5 -11 -12 -8 -18 4 -5 1 -9 -4 -9 -14 0 -14 -33 0 -47 7 -7 22 -8 42
-2 46 12 89 21 110 22 9 1 17 4 17 8 0 7 43 20 56 18 4 0 10 3 13 8 3 4 23 16
44 25 137 64 288 202 385 353 24 38 82 163 82 177 0 8 3 18 7 22 4 3 8 12 9
19 8 38 13 58 18 65 9 16 20 129 19 217 0 106 -10 185 -29 240 -7 22 -14 48
-14 58 0 9 -4 17 -10 17 -5 0 -7 7 -4 15 4 8 1 15 -7 15 -7 0 -10 3 -6 6 7 7
-69 156 -95 184 -10 11 -16 20 -13 20 7 0 -42 55 -108 122 -26 26 -52 48 -57
48 -6 0 -10 4 -10 9 0 13 -116 86 -200 125 -78 36 -226 79 -241 71 -4 -3 -10
-1 -13 4 -3 5 -129 10 -283 10 -152 1 -281 5 -286 8 -5 3 -8 0 -5 -8z"/>
<path d="M1206 2853 c-5 -5 -25 -8 -108 -16 -10 -1 -18 -4 -18 -7 0 -4 -6 -7
-12 -8 -94 -8 -281 -93 -406 -184 -70 -51 -207 -188 -247 -248 -16 -25 -32
-47 -35 -50 -5 -5 -57 -102 -70 -130 -4 -8 -14 -28 -22 -45 -16 -32 -32 -85
-30 -97 1 -5 -2 -8 -7 -8 -6 0 -10 -8 -10 -17 0 -10 -7 -49 -17 -88 -16 -69
-28 -357 -15 -380 3 -5 6 -23 7 -40 1 -16 3 -30 4 -30 1 0 3 -11 6 -25 2 -14
9 -36 14 -50 5 -14 11 -34 13 -45 5 -26 15 -53 31 -85 8 -14 19 -42 25 -63 7
-20 17 -37 22 -37 5 0 9 -6 9 -12 0 -28 105 -171 183 -250 126 -129 264 -218
442 -284 11 -4 25 -8 30 -9 6 -2 28 -8 50 -14 22 -6 45 -11 50 -12 6 -1 20 -5
33 -10 15 -6 22 -5 22 4 0 8 3 8 8 2 16 -24 246 -25 397 -1 11 2 47 11 80 21
33 9 65 18 70 19 6 2 28 10 50 20 22 9 40 16 40 15 0 -5 121 64 136 77 9 8 19
11 22 7 4 -3 7 -1 7 5 0 17 28 7 105 -35 39 -21 93 -49 120 -63 28 -14 53 -29
56 -33 3 -5 9 -9 12 -9 18 0 47 -11 47 -18 0 -5 8 -7 18 -5 9 2 22 4 28 4 5 1
20 10 32 21 17 16 21 28 17 51 -6 33 -24 70 -40 81 -5 4 -7 8 -3 8 4 0 -8 25
-27 55 -19 30 -35 59 -35 65 0 5 -4 10 -10 10 -5 0 -10 5 -10 11 0 6 -9 24
-21 40 -21 30 -33 69 -21 69 4 0 16 15 27 33 10 17 21 34 24 37 34 29 143 276
157 355 1 6 3 12 4 15 1 3 4 17 6 33 9 64 11 73 17 87 5 11 21 15 55 14 51 -2
69 8 83 43 11 29 -8 73 -31 73 -9 0 -21 5 -28 12 -9 9 -12 9 -12 -1 0 -7 -5
-9 -12 -4 -7 4 -22 6 -33 5 -18 -2 -20 4 -21 61 l-2 63 52 -1 c42 -1 55 4 73
23 25 27 22 68 -5 88 -18 14 -23 15 -96 18 -35 1 -50 5 -52 16 -1 8 -9 34 -18
57 -14 39 -13 42 2 47 9 3 26 4 37 2 11 -2 25 1 32 6 7 6 14 5 18 -3 6 -8 10
-7 16 2 5 9 9 10 9 2 0 -13 39 -5 57 13 26 25 25 59 -1 86 -24 24 -31 25 -131
25 -58 0 -107 2 -109 4 -2 2 -18 30 -35 61 -18 31 -39 62 -46 68 -8 7 -15 17
-15 23 0 5 -13 23 -30 39 -16 15 -30 32 -30 36 0 10 -93 98 -150 142 -25 19
-47 37 -50 41 -10 11 -111 69 -120 69 -6 0 -10 3 -10 8 0 8 -136 64 -175 72
-5 1 -14 5 -20 10 -5 4 -32 11 -60 15 -27 5 -54 10 -60 11 -5 2 -21 6 -35 9
-31 9 -297 15 -304 8z m244 -282 c3 -1 25 -5 50 -7 25 -3 47 -10 48 -15 2 -5
7 -7 12 -4 8 5 110 -31 170 -61 42 -21 134 -84 138 -96 2 -4 8 -8 14 -8 18 0
150 -145 141 -154 -4 -3 -2 -6 4 -6 5 0 18 -16 29 -35 10 -19 23 -35 28 -35 5
0 7 -3 3 -6 -3 -4 5 -26 18 -49 13 -24 21 -46 18 -49 -4 -3 -2 -6 4 -6 5 0 10
-6 11 -12 0 -7 11 -52 25 -100 13 -49 20 -88 15 -88 -5 0 -5 -8 0 -17 5 -10 8
-67 6 -128 -5 -130 -5 -135 -14 -135 -4 0 -7 -8 -7 -17 2 -45 -54 -185 -109
-269 -109 -171 -262 -291 -452 -354 -119 -39 -228 -50 -382 -39 -61 4 -280 76
-280 91 0 5 -7 8 -15 8 -9 0 -42 19 -73 42 -102 75 -168 140 -214 211 -15 23
-31 47 -36 52 -23 30 -85 177 -98 236 -2 11 -6 29 -9 42 -5 19 -15 104 -16
132 0 6 2 22 4 38 2 15 0 27 -5 27 -5 0 -6 5 -2 11 3 6 8 32 11 58 2 25 11 71
20 101 9 30 17 60 18 65 7 51 95 207 158 281 52 62 138 140 150 136 4 -1 7 3
7 8 0 6 7 10 15 10 8 0 15 4 15 8 0 5 35 26 78 46 42 20 85 41 95 47 10 5 22
7 27 4 6 -4 10 -1 10 4 0 6 3 10 8 9 4 -1 21 1 37 5 17 4 46 9 65 12 19 3 36
7 37 9 3 3 216 0 223 -3z"/>
<path d="M990 2137 c-58 -15 -75 -84 -31 -127 l29 -30 344 1 c189 0 352 4 363
9 11 5 16 9 11 9 -6 1 -3 7 6 14 33 25 23 95 -16 117 -19 10 -102 13 -350 14
-179 0 -339 -2 -356 -7z"/>
<path d="M1024 1822 c-54 -8 -66 -15 -81 -48 -16 -33 -16 -37 2 -69 10 -19 24
-36 32 -36 13 -2 31 -5 36 -8 1 -1 82 -2 180 -4 113 -1 177 2 177 8 0 7 3 7 8
0 4 -5 30 -10 57 -10 28 0 53 5 57 10 5 7 8 7 8 0 0 -6 35 -8 95 -5 79 4 98 8
116 27 37 37 20 117 -27 129 -23 6 -625 11 -660 6z"/>
<path d="M982 1496 c-32 -18 -44 -37 -48 -71 -2 -28 3 -39 26 -59 l29 -24 350
1 c336 2 351 3 370 22 35 36 25 111 -18 132 -23 11 -689 10 -709 -1z"/>
</g>
</svg>
