<?xml version="1.0" encoding="utf-8"?>
<!-- Generator: Adobe Illustrator 19.0.0, SVG Export Plug-In . SVG Version: 6.00 Build 0)  -->
<svg version="1.1" id="Layer_1" xmlns="http://www.w3.org/2000/svg" xmlns:xlink="http://www.w3.org/1999/xlink" x="0px" y="0px"
	 viewBox="326 77.2 818 243.6" style="enable-background:new 326 77.2 818 243.6;" xml:space="preserve">
<style type="text/css">
	.st0{fill:#FFFFFF;}
</style>
<title>landscape-full-rgb</title>
<g>
	<path class="st0" d="M606.2,172.1c0,2.4-0.4,4.8-1.3,7.1c-1.6,4.3-5,7.7-9.3,9.4c-4.7,1.8-9.9,1.8-14.6,0c-2.1-0.9-4-2.1-5.7-3.7
		c-1.6-1.6-2.8-3.5-3.6-5.7c-1.7-4.6-1.7-9.6,0-14.2c0.8-2.1,2.1-4,3.6-5.6c1.6-1.6,3.5-2.9,5.7-3.7c4.7-1.8,9.9-1.8,14.6,0
		c4.3,1.7,7.6,5.1,9.3,9.4C605.8,167.2,606.2,169.6,606.2,172.1z M598.8,172.1c0-1.7-0.2-3.3-0.7-4.9c-0.4-1.4-1.1-2.6-2.1-3.7
		c-0.9-1-2-1.8-3.3-2.3c-2.8-1.1-6-1.1-8.8,0c-1.3,0.5-2.4,1.3-3.3,2.3c-0.9,1.1-1.7,2.3-2.1,3.7c-1,3.2-1,6.7,0,9.9
		c0.4,1.4,1.1,2.6,2.1,3.7c0.9,1,2.1,1.8,3.3,2.3c2.8,1.1,6,1.1,8.8,0c1.3-0.5,2.4-1.3,3.3-2.3c0.9-1.1,1.7-2.3,2.1-3.7
		C598.6,175.4,598.8,173.7,598.8,172.1z"/>
	<path class="st0" d="M626.3,177.5v12h-7.2v-34.9h11.8c2.1,0,4.2,0.2,6.2,0.8c1.6,0.5,3.1,1.3,4.3,2.4c1.1,1,2,2.2,2.5,3.6
		c0.6,1.4,0.8,3,0.8,4.5c0,1.6-0.3,3.2-0.8,4.7c-0.6,1.4-1.5,2.7-2.6,3.7c-1.3,1.1-2.7,1.9-4.3,2.4c-2,0.6-4,0.9-6.1,0.8
		L626.3,177.5L626.3,177.5z M626.3,172h4.6c2.3,0,3.9-0.6,5-1.7c1.1-1.2,1.7-2.8,1.6-4.5c0-0.8-0.1-1.6-0.4-2.4
		c-0.3-0.7-0.7-1.3-1.2-1.8c-0.6-0.5-1.3-0.9-2-1.2c-0.9-0.3-1.9-0.4-2.9-0.4h-4.6V172z"/>
	<path class="st0" d="M679.1,154.6v5.7h-14.9v9h11.6v5.5h-11.6v9.1h14.9v5.7h-22.2v-34.9H679.1z"/>
	<path class="st0" d="M696.7,154.6c0.2,0,0.4,0.1,0.6,0.2c0.2,0.1,0.4,0.2,0.5,0.3c0.2,0.2,0.4,0.4,0.5,0.6l17.5,22.3
		c-0.1-0.6-0.1-1.2-0.1-1.8c0-0.6,0-1.1,0-1.7v-20h6.4v34.9h-3.7c-0.5,0-1-0.1-1.4-0.3c-0.4-0.2-0.8-0.6-1.1-0.9l-17.4-22.1
		c0,0.6,0.1,1.1,0.1,1.7c0,0.6,0,1.1,0,1.5v20.2h-6.4v-34.9h3.8C696.2,154.6,696.4,154.6,696.7,154.6z"/>
	<path class="st0" d="M763.2,169h1.4c1,0.1,2-0.3,2.6-1.1l8.8-11.8c0.3-0.5,0.8-0.9,1.4-1.2c0.6-0.2,1.2-0.3,1.8-0.3h6.3l-11.1,14.3
		c-0.6,0.8-1.4,1.5-2.2,2c0.6,0.2,1.1,0.5,1.5,0.9c0.5,0.4,0.9,0.9,1.3,1.4l11.4,16.3H780c-0.4,0-0.7,0-1.1-0.1
		c-0.3-0.1-0.5-0.1-0.8-0.3c-0.2-0.1-0.4-0.2-0.6-0.4c-0.2-0.2-0.3-0.4-0.5-0.6l-9-12.6c-0.3-0.4-0.6-0.7-1.1-0.9
		c-0.6-0.2-1.2-0.3-1.8-0.3h-2v15.1H756v-34.9h7.2V169z"/>
	<path class="st0" d="M801.7,154.6c0.2,0,0.4,0.1,0.6,0.2c0.2,0.1,0.4,0.2,0.5,0.3c0.2,0.2,0.4,0.4,0.5,0.6l17.5,22.3
		c-0.1-0.6-0.1-1.2-0.1-1.8c0-0.6,0-1.1,0-1.7v-20h6.4v34.9h-3.7c-0.5,0-1-0.1-1.4-0.3c-0.4-0.2-0.8-0.6-1.1-0.9l-17.4-22.1
		c0,0.6,0.1,1.1,0.1,1.7c0,0.6,0,1.1,0,1.5v20.2H797v-34.9h3.8C801.1,154.6,801.4,154.6,801.7,154.6z"/>
	<path class="st0" d="M875.7,172.1c0,2.4-0.4,4.8-1.3,7.1c-1.6,4.3-5,7.7-9.3,9.4c-4.7,1.8-9.9,1.8-14.6,0c-2.1-0.9-4-2.1-5.7-3.7
		c-1.6-1.6-2.8-3.5-3.6-5.7c-1.7-4.6-1.7-9.6,0-14.2c0.8-2.1,2-4,3.6-5.6c1.6-1.6,3.5-2.9,5.7-3.7c4.7-1.8,9.9-1.8,14.6,0
		c4.3,1.7,7.7,5.1,9.3,9.4C875.3,167.2,875.7,169.6,875.7,172.1z M868.3,172.1c0-1.7-0.2-3.3-0.7-4.9c-0.4-1.4-1.1-2.6-2.1-3.7
		c-0.9-1-2-1.8-3.3-2.3c-2.8-1.1-6-1.1-8.8,0c-1.3,0.5-2.4,1.3-3.3,2.3c-0.9,1.1-1.7,2.3-2.1,3.7c-1,3.2-1,6.7,0,9.9
		c0.4,1.4,1.1,2.6,2.1,3.7c0.9,1,2.1,1.8,3.3,2.3c2.8,1.1,6,1.1,8.8,0c1.3-0.5,2.4-1.3,3.3-2.3c0.9-1.1,1.7-2.3,2.1-3.7
		C868.1,175.4,868.3,173.7,868.3,172.1z"/>
	<path class="st0" d="M884.4,154.6h6.1c0.6,0,1.1,0.1,1.6,0.4c0.4,0.3,0.7,0.7,0.8,1.2l5.4,19.7c0.1,0.6,0.3,1.1,0.4,1.8
		c0.1,0.6,0.3,1.3,0.4,2c0.1-0.7,0.3-1.4,0.5-2c0.2-0.6,0.3-1.2,0.5-1.8l6.3-19.7c0.2-0.4,0.4-0.8,0.8-1.1c0.4-0.3,1-0.5,1.6-0.5
		h2.1c0.5,0,1.1,0.1,1.5,0.4c0.4,0.3,0.7,0.7,0.9,1.1l6.3,19.7c0.2,0.5,0.3,1.1,0.5,1.7c0.2,0.6,0.3,1.2,0.4,1.9
		c0.1-0.7,0.3-1.3,0.4-1.9c0.1-0.6,0.3-1.2,0.4-1.7l5.4-19.7c0.1-0.5,0.4-0.8,0.8-1.1c0.5-0.3,1-0.5,1.6-0.5h5.7L924,189.5h-6.5
		l-7.1-22.8c-0.1-0.3-0.3-0.7-0.3-1.1c-0.1-0.4-0.2-0.8-0.3-1.2l-0.3,1.2c-0.1,0.4-0.2,0.7-0.3,1.1l-7.2,22.8h-6.6L884.4,154.6z"/>
	<path class="st0" d="M953.6,183.7h13.5v5.9h-20.8v-34.9h7.2V183.7z"/>
	<path class="st0" d="M1001.3,154.6v5.7h-14.9v9H998v5.5h-11.6v9.1h14.9v5.7H979v-34.9H1001.3z"/>
	<path class="st0" d="M1045.6,172.1c0,2.4-0.4,4.8-1.3,7c-0.8,2.1-2.1,4-3.6,5.5c-1.6,1.6-3.5,2.8-5.6,3.6c-2.3,0.9-4.8,1.3-7.3,1.3
		h-13.4v-34.9h13.4c2.5,0,5,0.4,7.3,1.3c2.1,0.8,4,2,5.6,3.6c1.6,1.6,2.8,3.5,3.6,5.5C1045.2,167.3,1045.6,169.7,1045.6,172.1z
		 M1038.2,172.1c0-1.7-0.2-3.3-0.7-4.9c-0.4-1.4-1.1-2.6-2.1-3.7c-0.9-1-2.1-1.8-3.3-2.3c-1.4-0.6-2.9-0.9-4.4-0.8h-6.2v23.6h6.2
		c1.5,0,3-0.3,4.4-0.8c1.3-0.5,2.4-1.3,3.3-2.3c0.9-1.1,1.6-2.4,2.1-3.7C1038,175.4,1038.2,173.7,1038.2,172.1L1038.2,172.1z"/>
	<path class="st0" d="M1081.8,189c-2.1,0.6-4.2,0.9-6.4,0.9c-2.7,0-5.3-0.4-7.8-1.3c-2.2-0.8-4.3-2.1-6-3.7c-1.7-1.6-3-3.5-3.8-5.7
		c-0.9-2.3-1.4-4.7-1.3-7.1c0-2.5,0.4-4.9,1.3-7.2c0.8-2.1,2.1-4,3.7-5.6c1.6-1.6,3.6-2.9,5.8-3.7c2.4-0.9,4.9-1.4,7.5-1.3
		c1.4,0,2.7,0.1,4,0.3c1.2,0.2,2.3,0.5,3.5,1c2,0.8,3.8,1.9,5.3,3.3l-2,3.2c-0.3,0.5-0.7,0.8-1.3,0.9c-0.6,0.1-1.2,0-1.7-0.4
		c-0.6-0.4-1.1-0.7-1.7-1c-0.6-0.3-1.2-0.5-1.8-0.7c-0.7-0.2-1.3-0.4-2-0.5c-0.8-0.1-1.7-0.2-2.5-0.2c-1.5,0-3,0.3-4.4,0.8
		c-1.3,0.5-2.4,1.4-3.3,2.4c-1,1.1-1.7,2.3-2.1,3.7c-0.5,1.6-0.8,3.2-0.7,4.8c0,1.8,0.3,3.5,0.8,5.2c0.5,1.4,1.3,2.7,2.3,3.8
		c1,1,2.2,1.8,3.5,2.4c2.5,0.9,5.2,1.1,7.7,0.5c0.9-0.2,1.8-0.6,2.7-1v-5.9h-4c-0.4,0-0.8-0.1-1.1-0.4c-0.3-0.2-0.4-0.6-0.4-1v-4h12
		v14.4C1085.8,187.4,1083.9,188.4,1081.8,189z"/>
	<path class="st0" d="M1123.3,154.6v5.7h-14.9v9h11.6v5.5h-11.6v9.1h14.9v5.7H1101v-34.9H1123.3z"/>
	
		<rect x="484.3" y="123.6" transform="matrix(-0.5985 0.8011 -0.8011 -0.5985 918.715 -206.7215)" class="st0" width="53.7" height="6.5"/>
	
		<rect x="477.9" y="127.4" transform="matrix(-0.4457 0.8952 -0.8952 -0.4457 826.4656 -250.531)" class="st0" width="25.9" height="6.5"/>
	<rect x="459.5" y="115.2" transform="matrix(-0.28 0.96 -0.96 -0.28 727.8516 -309.0748)" class="st0" width="40.7" height="6.5"/>
	
		<rect x="450.8" y="119.5" transform="matrix(-0.103 0.9947 -0.9947 -0.103 633.518 -325.8831)" class="st0" width="25.9" height="6.5"/>
	
		<rect x="446.2" y="106.5" transform="matrix(-0.9971 7.637099e-02 -7.637099e-02 -0.9971 906.7927 207.2915)" class="st0" width="6.5" height="29"/>
	
		<rect x="433.1" y="117.9" transform="matrix(-0.9674 0.2533 -0.2533 -0.9674 890.8522 140.8711)" class="st0" width="6.5" height="19.8"/>
	
		<rect x="421.7" y="128.7" transform="matrix(-0.9066 0.422 -0.422 -0.9066 867.277 78.7522)" class="st0" width="6.5" height="13.3"/>
	
		<rect x="412.7" y="142.6" transform="matrix(-0.8169 0.5767 -0.5767 -0.8169 839.523 23.9)" class="st0" width="6.5" height="5.2"/>
	
		<rect x="397.6" y="136.9" transform="matrix(-0.7007 0.7135 -0.7135 -0.7007 786.9549 -35.1288)" class="st0" width="6.5" height="21.3"/>
	<polygon class="st0" points="399.1,166.8 375.6,150.7 379.2,145.3 402.8,161.4 	"/>
	
		<rect x="384.5" y="163.1" transform="matrix(-0.4051 0.9143 -0.9143 -0.4051 701.3944 -113.9856)" class="st0" width="6.5" height="16.2"/>
	
		<rect x="366.2" y="157.8" transform="matrix(-0.2355 0.9719 -0.9719 -0.2355 631.7313 -136.1973)" class="st0" width="6.5" height="45.2"/>
	
		<rect x="370" y="180" transform="matrix(-5.808678e-02 0.9983 -0.9983 -5.808678e-02 591.0388 -164.764)" class="st0" width="6.5" height="32.8"/>
	
		<rect x="358.1" y="207.9" transform="matrix(-0.9927 0.1208 -0.1208 -0.9927 771.0092 375.5925)" class="st0" width="32" height="6.5"/>
	
		<rect x="385.2" y="218.7" transform="matrix(-0.9551 0.2964 -0.2964 -0.9551 826.1379 318.5803)" class="st0" width="7.4" height="6.5"/>
	
		<rect x="371.6" y="234.7" transform="matrix(-0.8868 0.4621 -0.4621 -0.8868 836.473 271.1122)" class="st0" width="26.9" height="6.5"/>
	<rect x="377.4" y="247.4" transform="matrix(-0.79 0.613 -0.613 -0.79 855.1578 208.3559)" class="st0" width="29" height="6.5"/>
	
		<rect x="387.9" y="257.7" transform="matrix(-0.6677 0.7444 -0.7444 -0.6677 864.6276 135.8643)" class="st0" width="28.3" height="6.5"/>
	
		<rect x="411" y="259.8" transform="matrix(-0.5243 0.8515 -0.8515 -0.5243 860.3666 45.4822)" class="st0" width="13" height="6.5"/>
	
		<rect x="414.2" y="271.4" transform="matrix(-0.3639 0.9314 -0.9314 -0.3639 838.0002 -23.0806)" class="st0" width="25.4" height="6.5"/>
	
		<rect x="429" y="274.3" transform="matrix(-0.1915 0.9815 -0.9815 -0.1915 797.3828 -101.8298)" class="st0" width="23.3" height="6.5"/>
	
		<rect x="446.4" y="272.2" transform="matrix(-1.343857e-02 0.9999 -0.9999 -1.343857e-02 736.0364 -175.3734)" class="st0" width="16.2" height="6.5"/>
	
		<rect x="465.8" y="266.2" transform="matrix(-0.9862 0.1656 -0.1656 -0.9862 978.3009 482.1887)" class="st0" width="6.5" height="31.4"/>
	
		<rect x="477.9" y="262.8" transform="matrix(-0.9408 0.3389 -0.3389 -0.9408 1026.0653 365.4738)" class="st0" width="6.5" height="18.9"/>
	<polygon class="st0" points="485.8,260.1 509.4,300.2 515,296.9 491.4,256.8 	"/>
	<polygon class="st0" points="499.6,257.5 496,253.8 500.7,249.4 504.2,253 	"/>
	
		<rect x="511.5" y="239.3" transform="matrix(-0.6338 0.7735 -0.7735 -0.6338 1034.1215 9.977)" class="st0" width="6.5" height="20.9"/>
	
		<rect x="518.3" y="228.5" transform="matrix(-0.4854 0.8743 -0.8743 -0.4854 982.7184 -102.5174)" class="st0" width="6.5" height="18.9"/>
	
		<rect x="518.8" y="219.7" transform="matrix(-0.3214 0.9469 -0.9469 -0.3214 901.8744 -198.5101)" class="st0" width="6.5" height="8.4"/>
	
		<rect x="530.1" y="200.3" transform="matrix(-0.1473 0.9891 -0.9891 -0.1473 822.4841 -283.2886)" class="st0" width="6.5" height="25.3"/>
	
		<rect x="521.5" y="196.1" transform="matrix(-0.9996 2.998651e-02 -2.998651e-02 -0.9996 1064.7721 382.6495)" class="st0" width="16.1" height="6.5"/>
	
		<rect x="519.9" y="182.1" transform="matrix(-0.9778 0.2094 -0.2094 -0.9778 1087.1689 255.5244)" class="st0" width="20.3" height="6.5"/>
	
		<rect x="516.1" y="170.3" transform="matrix(-0.9246 0.3809 -0.3809 -0.9246 1072.7161 134.7021)" class="st0" width="13.8" height="6.5"/>
	
		<rect x="508" y="151.6" transform="matrix(-0.8419 0.5397 -0.5397 -0.8419 1056.2328 0.1451)" class="st0" width="40.2" height="6.5"/>
	
		<rect x="503" y="150.7" transform="matrix(-0.7318 0.6815 -0.6815 -0.7318 982.0016 -78.618)" class="st0" width="7" height="6.5"/>
	<polygon class="st0" points="479.5,171.8 477,169.7 478.7,167.7 481.2,169.8 480,171.2 	"/>
	
		<rect x="466.6" y="167.7" transform="matrix(-0.4454 0.8953 -0.8953 -0.4454 833.1205 -177.4384)" class="st0" width="9.9" height="3.2"/>
	
		<rect x="463.3" y="163.4" transform="matrix(-0.2785 0.9604 -0.9604 -0.2785 754.4005 -236.7632)" class="st0" width="5.7" height="3.2"/>
	
		<rect x="454.4" y="164.1" transform="matrix(-0.1024 0.9947 -0.9947 -0.1024 671.15 -274.1535)" class="st0" width="9.8" height="3.2"/>
	
		<rect x="451.2" y="160.7" transform="matrix(-0.9971 7.637099e-02 -7.637099e-02 -0.9971 916.9398 295.4417)" class="st0" width="3.2" height="9"/>
	
		<rect x="445.1" y="161.8" transform="matrix(-0.9674 0.2533 -0.2533 -0.9674 921.3279 216.4081)" class="st0" width="3.2" height="11.5"/>
	
		<rect x="439.6" y="163.8" transform="matrix(-0.9067 0.4218 -0.4218 -0.9067 913.1884 138.9231)" class="st0" width="3.2" height="13.3"/>
	<polygon class="st0" points="440.7,183.1 430.8,169 433.4,167.1 443.3,181.3 	"/>
	
		<rect x="428.9" y="171.1" transform="matrix(-0.7007 0.7135 -0.7135 -0.7007 858.2512 -6.6741)" class="st0" width="3.2" height="11.1"/>
	
		<rect x="424.4" y="176.2" transform="matrix(-0.5619 0.8272 -0.8272 -0.5619 815.3187 -69.3576)" class="st0" width="3.2" height="9.9"/>
	
		<rect x="422.6" y="181" transform="matrix(-0.4053 0.9142 -0.9142 -0.4053 767.5018 -124.4591)" class="st0" width="3.2" height="12.8"/>
	
		<rect x="416.6" y="190" transform="matrix(-0.2355 0.9719 -0.9719 -0.2355 703.5945 -168.963)" class="st0" width="3.2" height="4.6"/>
	
		<rect x="417.4" y="195.1" transform="matrix(-5.791251e-02 0.9983 -0.9983 -5.791251e-02 642.0857 -207.5928)" class="st0" width="3.2" height="8.1"/>
	
		<rect x="415.1" y="204.1" transform="matrix(-0.9927 0.121 -0.121 -0.9927 860.444 359.1879)" class="st0" width="8.4" height="3.2"/>
	<polygon class="st0" points="417.2,214.9 416.2,211.8 431.9,207 432.9,210.1 	"/>
	
		<rect x="418.9" y="216.2" transform="matrix(-0.8865 0.4627 -0.4627 -0.8865 900.2961 214.9103)" class="st0" width="9.7" height="3.2"/>
	
		<rect x="422.4" y="221.8" transform="matrix(-0.7904 0.6126 -0.6126 -0.7904 901.4416 138.4002)" class="st0" width="9.2" height="3.2"/>
	
		<rect x="426.8" y="226.4" transform="matrix(-0.668 0.7442 -0.7442 -0.668 889.5215 59.2476)" class="st0" width="9.5" height="3.2"/>
	
		<rect x="431" y="228.7" transform="matrix(-0.524 0.8517 -0.8517 -0.524 863.1943 -21.8739)" class="st0" width="13.3" height="3.2"/>
	
		<rect x="437.6" y="232.9" transform="matrix(-0.3634 0.9316 -0.9316 -0.3634 821.9156 -92.5638)" class="st0" width="10" height="3.2"/>
	
		<rect x="443" y="234.1" transform="matrix(-0.1903 0.9817 -0.9817 -0.1903 765.2224 -159.584)" class="st0" width="10.9" height="3.2"/>
	
		<rect x="448.7" y="234" transform="matrix(-1.326415e-02 0.9999 -0.9999 -1.326415e-02 696.7386 -216.3277)" class="st0" width="12.8" height="3.2"/>
	
		<rect x="460" y="233.1" transform="matrix(-0.9862 0.1654 -0.1654 -0.9862 956.0833 394.9966)" class="st0" width="3.2" height="8.4"/>
	
		<rect x="465.6" y="227.6" transform="matrix(-0.9406 0.3394 -0.3394 -0.9406 986.1306 295.1538)" class="st0" width="3.2" height="12.3"/>
	
		<rect x="473.6" y="233.7" transform="matrix(-0.8654 0.5011 -0.5011 -0.8654 1004.2709 200.6566)" class="st0" width="3.2" height="3.1"/>
	<polygon class="st0" points="480.7,233.4 469.1,219.8 471.6,217.7 483.1,231.3 	"/>
	
		<rect x="481.1" y="218" transform="matrix(-0.6338 0.7735 -0.7735 -0.6338 961.5685 -8.1288)" class="st0" width="3.2" height="11.2"/>
	
		<rect x="484.4" y="212.3" transform="matrix(-0.4856 0.8742 -0.8742 -0.4856 912.7335 -100.6822)" class="st0" width="3.2" height="11.8"/>
	<polygon class="st0" points="493.6,215.9 479.1,211 480.1,207.9 494.6,212.9 	"/>
	
		<rect x="489.3" y="201.7" transform="matrix(-0.1478 0.989 -0.989 -0.1478 767.804 -248.3763)" class="st0" width="3.2" height="9.9"/>
	
		<rect x="483.6" y="198.6" transform="matrix(-0.9995 3.175965e-02 -3.175965e-02 -0.9995 985.9538 384.8536)" class="st0" width="12.6" height="3.2"/>
	
		<rect x="484" y="192.4" transform="matrix(-0.9778 0.2096 -0.2096 -0.9778 1009.2688 281.0439)" class="st0" width="11.5" height="3.2"/>
	
		<rect x="480.6" y="186.7" transform="matrix(-0.9248 0.3804 -0.3804 -0.9248 1009.27 177.1986)" class="st0" width="13.1" height="3.2"/>
	
		<rect x="484.6" y="179.3" transform="matrix(-0.842 0.5395 -0.5395 -0.842 995.4203 70.2728)" class="st0" width="5.7" height="3.2"/>
	
		<rect x="472" y="177.2" transform="matrix(-0.7319 0.6814 -0.6814 -0.7319 952.6851 -17.1156)" class="st0" width="15.4" height="3.2"/>
	<g>
		<path class="st0" d="M584,213.6c2,0,3.8,0.2,5.2,0.6c1.5,0.4,2.7,1,3.6,1.7c0.9,0.7,1.6,1.6,2.1,2.7c0.4,1.1,0.7,2.3,0.7,3.6
			c0,0.8-0.1,1.6-0.4,2.3c-0.3,0.7-0.6,1.4-1.1,2.1c-0.5,0.6-1.2,1.2-1.9,1.7c-0.8,0.5-1.7,0.9-2.7,1.3c2.4,0.5,4.3,1.3,5.5,2.6
			c1.2,1.3,1.8,2.9,1.8,5c0,1.4-0.3,2.7-0.8,3.8c-0.5,1.2-1.3,2.1-2.3,3c-1,0.8-2.2,1.5-3.7,1.9c-1.4,0.5-3.1,0.7-4.9,0.7h-11.7
			v-33.1H584z M577.9,217.1v11.3h5.9c1.3,0,2.4-0.1,3.3-0.4c0.9-0.3,1.7-0.7,2.3-1.2c0.6-0.5,1.1-1.1,1.4-1.8
			c0.3-0.7,0.4-1.5,0.4-2.3c0-2-0.6-3.4-1.8-4.3c-1.2-0.9-3-1.4-5.4-1.4H577.9z M585,243.1c1.3,0,2.4-0.1,3.3-0.4
			c0.9-0.3,1.7-0.7,2.3-1.2c0.6-0.5,1-1.2,1.3-1.9s0.4-1.5,0.4-2.4c0-1.7-0.6-3.1-1.8-4.1c-1.2-1-3-1.5-5.5-1.5h-7.2v11.5H585z"/>
		<path class="st0" d="M634.6,246.7h-4c-0.8,0-1.4-0.3-1.8-0.9l-8.6-11.8c-0.3-0.4-0.5-0.6-0.8-0.8c-0.3-0.2-0.8-0.2-1.4-0.2h-3.4
			v13.8h-4.5v-33.1h9.3c2.1,0,3.9,0.2,5.4,0.6c1.5,0.4,2.8,1,3.8,1.8c1,0.8,1.7,1.8,2.2,2.9c0.5,1.1,0.7,2.4,0.7,3.8
			c0,1.2-0.2,2.3-0.6,3.3c-0.4,1-0.9,1.9-1.6,2.7c-0.7,0.8-1.6,1.5-2.6,2.1c-1,0.6-2.2,1-3.4,1.3c0.6,0.3,1.1,0.8,1.5,1.4
			L634.6,246.7z M619.3,229.6c1.3,0,2.4-0.2,3.4-0.5c1-0.3,1.8-0.8,2.5-1.3c0.7-0.6,1.2-1.3,1.5-2.1c0.3-0.8,0.5-1.7,0.5-2.7
			c0-2-0.6-3.5-1.9-4.5c-1.3-1-3.2-1.5-5.8-1.5h-4.9v12.5H619.3z"/>
		<path class="st0" d="M672.9,246.7h-3.5c-0.4,0-0.7-0.1-1-0.3c-0.2-0.2-0.4-0.5-0.6-0.8l-3.1-8H650l-3.1,8
			c-0.1,0.3-0.3,0.5-0.5,0.7c-0.3,0.2-0.6,0.3-1,0.3h-3.5l13.2-33.1h4.5L672.9,246.7z M663.6,234.4l-5.2-13.5
			c-0.2-0.4-0.3-0.9-0.5-1.4c-0.2-0.5-0.3-1.1-0.5-1.7c-0.3,1.2-0.7,2.3-1,3.1l-5.2,13.4H663.6z"/>
		<path class="st0" d="M701.1,218.8c-0.1,0.2-0.3,0.4-0.5,0.5c-0.2,0.1-0.4,0.2-0.6,0.2c-0.3,0-0.6-0.1-0.9-0.4
			c-0.4-0.3-0.8-0.6-1.3-0.9c-0.5-0.3-1.2-0.6-1.9-0.9c-0.7-0.3-1.7-0.4-2.7-0.4c-1,0-1.9,0.1-2.6,0.4c-0.8,0.3-1.4,0.6-1.9,1.1
			c-0.5,0.5-0.9,1-1.2,1.6c-0.3,0.6-0.4,1.3-0.4,2c0,0.9,0.2,1.7,0.7,2.3c0.5,0.6,1.1,1.1,1.8,1.6c0.7,0.4,1.6,0.8,2.5,1.1
			c0.9,0.3,1.9,0.6,2.9,1c1,0.3,2,0.7,2.9,1.1c0.9,0.4,1.8,1,2.5,1.6c0.7,0.6,1.3,1.4,1.8,2.4c0.5,0.9,0.7,2.1,0.7,3.5
			c0,1.4-0.2,2.8-0.7,4.1c-0.5,1.3-1.2,2.4-2.2,3.3c-0.9,0.9-2.1,1.7-3.5,2.2c-1.4,0.5-2.9,0.8-4.7,0.8c-2.2,0-4.1-0.4-5.9-1.2
			c-1.8-0.8-3.3-1.8-4.5-3.2l1.3-2.1c0.1-0.2,0.3-0.3,0.4-0.4c0.2-0.1,0.4-0.2,0.6-0.2c0.2,0,0.4,0.1,0.7,0.2
			c0.3,0.2,0.5,0.4,0.9,0.6c0.3,0.2,0.7,0.5,1.1,0.8c0.4,0.3,0.9,0.6,1.4,0.8c0.5,0.2,1.1,0.4,1.8,0.6c0.7,0.2,1.4,0.2,2.3,0.2
			c1.1,0,2-0.1,2.8-0.4c0.8-0.3,1.5-0.7,2.1-1.2c0.6-0.5,1-1.2,1.3-1.9c0.3-0.7,0.5-1.6,0.5-2.5c0-1-0.2-1.8-0.7-2.5
			c-0.5-0.6-1.1-1.2-1.8-1.6c-0.7-0.4-1.6-0.8-2.5-1.1c-1-0.3-1.9-0.6-2.9-0.9c-1-0.3-2-0.7-2.9-1.1c-1-0.4-1.8-1-2.5-1.6
			s-1.3-1.5-1.8-2.5c-0.5-1-0.7-2.2-0.7-3.7c0-1.2,0.2-2.3,0.7-3.4c0.5-1.1,1.1-2.1,2-2.9c0.9-0.8,1.9-1.5,3.2-2
			c1.3-0.5,2.7-0.8,4.4-0.8c1.8,0,3.5,0.3,5,0.9c1.5,0.6,2.9,1.4,4,2.5L701.1,218.8z"/>
		<path class="st0" d="M720.6,246.7h-4.5v-33.1h4.5V246.7z"/>
		<path class="st0" d="M754.8,242.9v3.8H736v-33.1h4.5v29.3H754.8z"/>
	</g>
</g>
</svg>
